Patient4_TMGait_0pt4_01_right_04_EMG.mot
version=1
nRows=33
nColumns=33
inDegrees=no
endheader
time	1LAddLong	2LGlutMax	3LGlutMed	4LIliopsoas	5LSemiMemb	6LBicFemLong	7LRecFem	8LVastMed	9LVastLat	10LGasMed	11LTibAnt	12lTibPost	13LPeroneusLong	14LSol	15LExtDigLong	16LFlexDigLong	17RAddLong	18RGlutMax	19RGlutMed	20RIliopsoas	21RSemiMemb	22RBicFemLong	23RRecFem	24RVastMed	25RVastLat	26RGasMed	27RTibAnt	28RTibPost	29RPeroneusLong	30RSol	31RExtDigLong	32RFlexDigLong
5.645	0.007324	-0.075073	-0.074768	-0.010681	-0.011597	0.046387	-0.095673	-0.011749	0.1416	0.009613	0.23804	0.001068	-0.050812	0.036011	0.063629	0.00061	0.001831	0.098877	-0.19165	-0.027161	0.20554	-0.11749	-0.168	-0.085144	-0.015259	0.005493	0.17654	0.074463	-0.10574	0.14145	-0.002899	0.003052
5.646	0.002136	-0.10941	-0.12558	0.015259	0.029602	0.059967	-0.004272	0.003357	0.25421	0.001678	0.13016	-0.00412	-0.00412	0.069275	0.1535	0.018921	-0.009308	0.11612	0.041809	-0.085754	0.089874	-0.11292	-0.16769	-0.059052	-0.000458	0.003204	0.35599	0.003204	-0.088654	-0.047607	-0.004578	0.001678
5.647	-0.016022	-0.088043	-0.13214	0.009155	-0.003967	0.034027	0.052338	-0.005493	0.21347	-0.022888	0.034943	-0.00473	0.10086	0.082245	0.17105	-0.006409	-0.007324	0.11643	0.25757	-0.091095	-0.07019	-0.039673	-0.18799	-0.04715	-0.012665	-0.002136	0.49469	0.007935	-0.018158	-0.048828	-0.003357	-0.005035
5.648	-0.013885	-0.072479	-0.13062	0.010071	-0.014496	-0.034943	-0.023346	-0.00412	0.12161	-0.035706	-0.034637	-0.005188	0.15305	0.13229	-0.009766	0.006104	0.003052	0.084534	0.16602	-0.053711	-0.12924	0.0354	-0.17349	-0.036469	-0.002136	-0.009308	0.48279	-0.00351	0.005341	0.042572	-0.00351	-0.004272
5.649	-0.003967	-0.052643	-0.14206	0.004883	0.042267	-0.097656	-0.06424	0.005493	0.033112	0.036621	0.16022	-0.006104	-0.027161	0.10696	0.058899	0.010071	-0.006714	0.052032	-0.15106	0.021667	-0.006256	0.005493	-0.19012	0.022888	0.012207	-0.018616	0.20035	-0.00824	0.052032	0.050507	-0.004272	-0.012207
5.65	-0.002441	-0.022888	-0.16983	0.012665	0.078583	-0.025177	-0.041199	0.006409	-0.087738	0.030365	0.14786	-0.007477	-0.067596	0.088043	0.007782	-0.010986	0.003204	0.027924	0.20248	0.14206	-0.073395	-0.059509	-0.13275	0.052338	0.023804	-0.019989	-0.15182	-0.007782	0.071411	-0.056915	-0.004272	-0.006409
5.651	-0.002899	0.009613	-0.15671	0.004272	0.031128	0.10712	-0.06424	0.007477	-0.10681	0.0177	-0.022583	-0.010376	-0.033417	0.13306	0.018616	0.004272	0.014801	0.069427	0.15381	0.12131	-0.25055	0.018158	-0.094147	0.046539	0.005493	-0.006561	-0.43839	-0.008545	0.015106	-0.18814	0.000153	-0.012817
5.652	-0.01297	0.077667	-0.099335	0.001221	-0.010529	0.077362	-0.024414	0.007019	-0.070801	0.011292	-0.20477	-0.003815	0.049591	0.12848	0.036469	-0.002594	0.024414	0.11215	0.066071	0.06012	-0.27893	0.14099	-0.051727	-0.00061	0.004883	-0.014343	-0.046844	-0.010681	-0.14069	-0.23102	-0.00061	-0.007477
5.653	-0.018768	0.032043	-0.072021	0.00824	-0.05722	0.045319	-0.036469	0.003815	-0.050201	0.012054	-0.15442	-0.005035	0.083466	0.095978	0.32669	0.015106	0.011597	0.11063	0.31448	0.046539	-0.1355	0.055542	-0.052795	-0.11139	-0.023804	-0.005188	0.21393	-0.008087	-0.17548	-0.29938	-0.001373	-0.014648
5.654	0.001068	0.027618	-0.019531	-0.007324	0.013275	-0.086365	-0.009003	0.000153	0.077057	0.020905	-0.082245	-0.001984	0.098114	0.046234	0.16907	0.00412	0.02594	0.032959	0.15656	0.019989	0.073242	-0.026245	-0.17822	-0.11978	-0.024261	0.003967	0.71396	-0.009003	-0.10086	-0.36407	0.001831	-0.014648
5.655	0.00946	0.081635	-0.031891	-0.000458	0.094299	-0.29251	-0.024109	-0.002899	0.13351	0.032654	-0.044403	-0.002289	0.012665	0.083771	-0.15686	-0.020447	-0.042725	0.017548	0.042267	0.02594	0.34622	-0.10986	-0.17212	-0.054169	0.005798	0.006104	0.66452	-0.006866	0.059662	-0.32272	-0.003204	-0.014496
5.656	0.13458	0.081482	0.010529	0.014954	0.035858	-0.26001	-0.057983	-0.000763	0.15137	0.007324	0.002899	0.001373	0.026855	0.12894	-0.34653	-0.007019	-0.034027	0.050964	-0.055847	0.019226	0.33173	-0.18692	-0.23804	-0.032196	-0.007172	0.007019	-0.45914	-0.011749	0.15961	-0.22263	-0.002289	-0.01297
5.657	0.032501	0.11795	0.018463	0.013275	0.009613	-0.072327	-0.061798	0.007629	0.1741	0.00351	0.056915	0.000916	0.13962	0.1062	-0.48233	-0.027161	-0.002136	0.036011	0.040131	-0.098419	0.15411	-0.16571	-0.4184	-0.022583	-0.067902	-0.003052	-0.6424	-0.01236	0.27771	-0.072784	-0.000916	-0.012512
5.658	0.027161	0.15427	0.016479	0.012207	0.016022	0.14389	-0.10971	0.003815	0.13519	0.005341	0.11307	0.005188	0.095215	0.034485	-0.42984	-0.003662	-0.033264	0.064697	0.3656	-0.096436	0.076447	-0.08194	-0.68481	0.023346	-0.003967	-0.007935	-1.0262	-0.012817	0.03479	0.19684	0	-0.013428
5.659	0.006409	0.14313	0.031433	0.010071	0.062256	0.31326	-0.057068	0.011902	0.066833	0.017548	0.059509	0.002899	-0.022736	-0.00351	-0.24399	-0.00824	-0.050201	0.051575	0.16983	0.011597	0.13687	-0.033417	-0.52094	0.090637	0.042572	-0.006256	-1.1267	-0.005951	-0.20935	0.22125	0.000458	-0.019226
5.66	-0.013123	0.1799	-0.007477	0.013123	0.046692	0.15518	-0.040741	0.005646	-0.022888	0.032043	-0.040131	0.006409	0.048676	-0.12116	-0.13077	-0.010223	-0.020142	-0.056458	-0.14084	0.035553	0.11337	0.042114	-0.34286	0.048065	0.023804	-0.005035	-1.1383	-0.009766	-0.010223	0.13031	0.001221	-0.010529
5.661	-0.016327	0.1181	-0.047455	0.013275	-0.037231	0.083008	-0.040131	0.012665	-0.1709	0.002441	-0.24887	0.003662	0.020599	-0.084229	-0.016479	-0.004272	-0.007019	-0.096283	-0.090637	-0.019684	0.014038	0.10925	-0.32837	0.040894	0.009308	-0.000458	-0.91858	-0.005188	0.78171	0.063629	-0.00061	-0.001373
5.662	-0.011902	0.10269	-0.043793	0.009613	-0.094604	0.13138	-0.072479	0.009613	-0.26581	0.018616	-0.14481	0.012512	-0.29236	-0.079956	-0.032043	-0.000305	-0.019836	-0.03891	0.028076	-0.05127	-0.10071	0.14252	-0.40253	-0.032501	0.020142	0.007477	-0.30441	-0.007629	0.66055	0.013123	-0.003662	-0.007019
5.663	-0.005035	0.10437	-0.012054	0.010529	-0.13138	0.16586	-0.046234	0.013428	-0.13351	0.013733	-0.11581	0.015564	-0.09079	-0.04715	-0.003052	-0.012054	0.00824	-0.034332	0.39291	-0.056915	0.005493	0.16724	-0.30319	-0.056915	0.04715	0.012054	0.23651	-0.002289	-0.12116	-0.045929	-0.003204	-0.005951
5.664	-0.002594	0.025024	-0.02594	0.002747	-0.070496	0.16007	-0.08316	0.014191	-0.041351	0.004425	0.027161	0.011597	0.050201	-0.066986	0.097351	0.003967	0.011139	-0.12482	0.046539	-0.085297	0.073547	0.15259	-0.26535	-0.028381	0.047913	0.01236	0.56763	-0.005951	-0.17319	0.00824	-0.001373	-0.013733
5.665	-0.000763	0.001831	0.019226	-0.007629	0.070801	0.002289	-0.094299	0.028076	0.000305	0.016937	0.10941	0.020599	0.053864	-0.064087	0.14389	-0.001526	0.022125	-0.020142	0.01709	-0.069122	0.024261	0.066071	-0.27252	0.036926	0.041199	-0.005341	0.53009	-0.006256	-0.28091	0.087585	-0.002289	-0.016479
5.666	-0.014343	0.018921	0.040283	-0.003052	0.065765	0.015106	-0.12665	0.04715	0.044556	-0.005188	0.027618	0.014648	0.088654	0.041504	0.17761	0.006409	0.021515	0.006714	0.11398	-0.018005	0.049133	-0.007782	-0.26916	0.024719	0.026093	-0.000153	0.39688	-0.007324	-0.003662	0.17258	-0.002747	-0.014496
5.667	-0.01358	0.011139	0.041046	0.002289	0.004272	-0.079346	-0.15076	0.04837	0.10162	0.008087	0.016174	0.021667	0.04303	0.095673	0.13336	0.011902	0.008698	-0.032196	0.1503	0.060425	-0.02121	-0.1358	-0.26291	-0.026398	0.016785	0.005951	0.33508	-0.002747	-0.094604	0.11154	-0.003815	-0.003815
5.668	-0.007172	-0.015106	-0.015259	-0.008545	-0.005035	-0.19745	-0.11993	0.035248	0.11719	0.023193	0.007172	0.023804	0.074768	0.009003	0.086517	-0.009308	0.026245	-0.016632	-0.12436	0.039063	-0.033417	-0.27466	-0.26016	-0.058136	0.022736	0.010376	0.23056	-0.005341	0.040894	0.037689	-0.003052	-0.007172
5.669	-0.006409	-0.031891	-0.06073	-0.000458	0.016479	-0.15976	-0.1387	0.019531	0.090027	0.023804	0.02121	0.02533	-0.001678	-0.023499	0.046844	-0.002899	0.033264	0.056458	-0.20355	-0.13214	-0.13001	-0.31555	-0.32074	-0.008087	0.018311	0.007782	0.25711	-0.005493	0.073547	0.063171	-0.003357	-0.007935
5.67	-0.006866	-0.10696	0.036469	0.005951	0.04303	-0.047302	-0.049896	-0.002899	0.15518	0.02243	0.009308	0.028992	-0.08194	-0.010376	0.023499	-0.003357	0.036011	0.078888	-0.13214	-0.18906	-0.12451	-0.2565	-0.26733	0.003357	0.03067	0.001526	0.2681	-0.00473	-0.04425	0.075989	-0.001221	-0.016632
5.671	-0.013123	-0.11749	0.04364	0.01236	0.003662	-0.019226	0.040283	-0.017548	0.34332	0.020294	0.016022	0.023499	-0.082245	0.038605	0.029449	-0.00351	0.036316	0.096741	0.074615	-0.16357	-0.009613	-0.23697	-0.26901	0.021973	0.031586	0.003967	0.10101	-0.003357	-0.24918	0.029297	-0.003052	-0.02121
5.672	-0.014191	-0.10284	0.016785	0.007782	0.005646	0.006866	0.00824	-0.027771	0.48752	0.014038	0.014191	0.029449	-0.078888	0.051117	0.03418	-0.00473	0.045166	0.085602	0.068817	-0.074921	-0.03891	-0.14816	-0.21149	-0.074463	0.001526	-0.019226	0.006409	0.000458	-0.36972	0.003357	0.002441	-0.018158
5.673	-0.02533	-0.11566	-0.048523	0.030823	0.015869	0.053406	-0.014801	-0.022583	0.35065	0.015717	0.037384	0.027618	-0.11627	0.04837	0.016327	-0.008698	0.011292	0.061951	0.044556	0.1741	0.10315	-0.091095	-0.23193	-0.018616	0.027618	-0.018768	0.12283	-0.004578	-0.39856	0.035095	-0.005798	-0.018921
5.674	-0.028687	-0.13733	-0.047607	0.018005	-0.064087	0.15854	-0.017853	0.00885	0.13443	0.025177	0.041351	0.030212	-0.071869	0.046692	0.3569	-0.013123	-0.022888	0.033417	0.10544	0.27405	0.19882	-0.029297	-0.23636	0.052338	0.028076	-0.024719	0.1918	-0.001221	-0.20996	0.074768	0	-0.028229
5.675	-0.051727	-0.12054	-0.053253	0.007782	-0.13428	0.18356	-0.058746	0.042267	-0.089111	0.013733	0.084229	0.031128	-0.012512	0.072021	-0.080261	-0.019531	-0.012817	0.068512	0.076141	0.17273	0.16922	-0.016937	-0.27481	-0.00412	0.042419	-0.026855	0.12634	-0.001984	0.2478	0.057526	-0.000916	-0.020599
5.676	-0.061646	-0.053558	-0.063782	0.001221	-0.043488	0.053253	-0.091553	0.048981	-0.20676	-0.010376	0.1564	0.027008	0.054932	0.12405	0.14908	-0.018005	-0.074615	0.048065	0.014191	0.23514	-0.063782	0.14008	-0.24689	0.03067	0.000153	-0.029449	0.032806	-0.002136	0.13016	0.023499	-0.002899	-0.021057
5.677	-0.05661	-0.04303	-0.045776	-0.002289	-0.03418	-0.089874	-0.079956	0.052643	-0.11246	-0.00946	0.15045	0.026093	0.029602	0.16251	-0.16876	-0.013428	-0.061188	0.10239	-0.015411	0.16785	-0.19073	0.048676	-0.24094	-0.036469	-0.019226	-0.03418	-0.078125	-0.002136	-0.024872	0.043182	-0.003357	-0.021362
